<svg width="197" height="139" viewBox="0 0 197 139" fill="none" xmlns="http://www.w3.org/2000/svg">
<path fill-rule="evenodd" clip-rule="evenodd" d="M98.5218 15.208L85.2537 28.2748L77.5333 20.6713L98.5218 0L119.517 20.6782L111.797 28.2816L98.5218 15.208ZM79.8014 33.6424L72.081 26.0395L64.3608 33.6429L72.081 41.2464L79.8014 33.6424ZM98.5218 52.0795L85.2537 39.0128L77.522 46.6062L77.5328 46.6166L98.5218 67.2876L119.517 46.6098L119.521 46.6055L111.796 39.0065L98.5218 52.0795ZM124.964 41.2496L132.683 33.6461L124.963 26.0427L117.243 33.6467L124.964 41.2496ZM106.353 33.6397H106.356L98.522 25.9241L90.6947 33.6547L98.522 41.3633L106.356 33.6477L106.36 33.6436L106.353 33.6397ZM0 81.2195H12.662C15.8045 81.2195 18.181 82.0158 19.7915 83.6083C21.0378 84.8417 21.6609 86.3702 21.6609 88.1938V88.271C21.6609 89.0415 21.5645 89.7225 21.3703 90.3131C21.1887 90.8791 20.9275 91.4175 20.5944 91.9119C20.2797 92.3784 19.9015 92.7998 19.47 93.1642C19.0472 93.5217 18.5855 93.8318 18.0934 94.0891C19.6731 94.6804 20.9167 95.4827 21.8232 96.4974C22.7294 97.5126 23.1832 98.9191 23.1832 100.717V100.794C23.1832 102.027 22.943 103.106 22.4624 104.031C21.9819 104.955 21.2933 105.726 20.397 106.343C19.5006 106.96 18.4226 107.422 17.1628 107.73C15.903 108.038 14.5069 108.192 12.9749 108.192H0V81.2195ZM11.396 92.1241C12.7234 92.1241 13.7773 91.8998 14.5574 91.45C15.3379 91.0005 15.7281 90.2744 15.7281 89.2729V89.1958C15.7281 88.2971 15.3896 87.6101 14.7132 87.1344C14.0365 86.6591 13.0608 86.4213 11.7862 86.4213H5.85384V92.1241H11.396ZM12.9964 102.991C14.3233 102.991 15.3634 102.754 16.1187 102.278C16.8732 101.803 17.2507 101.064 17.2507 100.062V99.9854C17.2507 99.0863 16.8991 98.3735 16.1968 97.8465C15.4942 97.3207 14.3625 97.0571 12.8011 97.0571H5.85384V102.991L12.9964 102.991ZM30.7241 81.2195H36.7351V108.193H30.7241V81.2195ZM45.839 81.2195H51.3802L64.1824 97.8276V81.2195H70.1147V108.193H65.0023L51.771 91.0458V108.193H45.839V81.2195ZM88.312 81.0271H93.8538L105.563 108.193H99.2791L96.7812 102.144H85.2284L82.7308 108.193H76.6021L88.312 81.0271ZM94.6346 96.9024L91.0046 88.1557L87.3756 96.9024H94.6346ZM112.051 81.2195H117.595L130.394 97.8276V81.2195H136.328V108.193H131.216L117.985 91.0458V108.193H112.051V81.2195ZM157.959 108.655C155.955 108.655 154.095 108.295 152.377 107.576C150.661 106.858 149.178 105.875 147.928 104.628C146.678 103.383 145.702 101.912 145.001 100.216C144.299 98.5206 143.948 96.7096 143.948 94.7828V94.7062C143.948 92.7793 144.299 90.975 145.001 89.2922C145.704 87.6097 146.678 86.1324 147.928 84.8609C149.176 83.5894 150.673 82.5871 152.417 81.8551C154.159 81.1231 156.086 80.7571 158.194 80.7571C159.468 80.7571 160.632 80.8604 161.685 81.0652C162.74 81.2714 163.695 81.5534 164.555 81.9129C165.394 82.2626 166.193 82.7019 166.936 83.223C167.659 83.7325 168.336 84.2997 168.964 84.9188L165.14 89.2729C164.073 88.3229 162.987 87.5771 161.882 87.038C160.775 86.4988 159.532 86.2288 158.154 86.2288C157.008 86.2288 155.948 86.4474 154.974 86.884C154.015 87.3078 153.158 87.9247 152.455 88.6947C151.754 89.4654 151.207 90.3585 150.816 91.3728C150.426 92.388 150.231 93.4732 150.231 94.629V94.7056C150.231 95.8616 150.426 96.9538 150.816 97.9807C151.207 99.0088 151.745 99.9075 152.436 100.678C153.125 101.449 153.957 102.059 154.934 102.509C155.91 102.959 156.982 103.183 158.154 103.183C159.715 103.183 161.034 102.9 162.115 102.335C163.194 101.771 164.268 101 165.335 100.023L169.161 103.838C168.484 104.559 167.753 105.229 166.975 105.842C166.209 106.439 165.377 106.95 164.496 107.364C163.598 107.788 162.615 108.109 161.549 108.327C160.482 108.545 159.285 108.655 157.959 108.655ZM176.234 81.2195H196.802V86.4988H182.167V91.9706H195.045V97.2495H182.167V102.914H196.998V108.193H176.234V81.2195ZM9.37305 131.204C10.039 131.607 10.3719 132.139 10.3719 132.799C10.3719 133.532 10.0846 134.137 9.50988 134.614C8.94431 135.09 8.15524 135.329 7.14267 135.329C6.26694 135.329 5.4277 135.132 4.62495 134.737C3.8222 134.343 3.30223 134.032 3.06506 133.802C2.837 133.564 2.65912 133.372 2.53141 133.225L0 135.755L0.314716 136.099C0.497159 136.319 0.798192 136.589 1.21781 136.91C1.63743 137.231 2.12091 137.547 2.66824 137.859C3.22469 138.17 3.9271 138.436 4.77547 138.656C5.63295 138.885 6.5178 139 7.43002 139C9.74706 139 11.5624 138.422 12.876 137.267C14.1987 136.112 14.86 134.623 14.86 132.799C14.86 131.506 14.5271 130.438 13.8612 129.595C13.1952 128.752 12.3834 128.147 11.4255 127.78C10.4768 127.413 9.52813 127.092 8.57942 126.817C7.63983 126.542 6.83708 126.208 6.17116 125.814C5.51436 125.41 5.18597 124.879 5.18597 124.219C5.18597 123.632 5.4277 123.132 5.91118 122.72C6.40378 122.307 7.05145 122.101 7.85421 122.101C8.52013 122.101 9.1678 122.257 9.79723 122.569C10.4267 122.88 10.8372 123.132 11.0287 123.325C11.2294 123.508 11.3845 123.664 11.494 123.792L14.0117 121.111L13.7654 120.836C13.6103 120.644 13.3503 120.419 12.9854 120.162C12.6297 119.897 12.2101 119.64 11.7266 119.392C11.2522 119.136 10.641 118.916 9.89301 118.732C9.14499 118.54 8.36961 118.444 7.56686 118.444C5.53261 118.444 3.87693 119.007 2.59982 120.135C1.33184 121.262 0.697848 122.624 0.697848 124.219C0.697848 125.511 1.03081 126.579 1.69673 127.422C2.36265 128.266 3.1654 128.871 4.10499 129.237C5.05369 129.604 6.0024 129.925 6.95111 130.2C7.90894 130.466 8.71625 130.8 9.37305 131.204ZM35.9186 118.856L29.1317 127.45L22.4132 118.856H18.6229V138.574H22.8374V125.484L29.1317 133.5L35.4397 125.429V138.574H39.6405V118.856H35.9186ZM54.7742 130.269L52.3933 123.792L49.9987 130.269H54.7742ZM56.1699 133.926H48.603L46.92 138.574H42.4319L50.1492 118.856H54.6237L62.341 138.574H57.8529L56.1699 133.926ZM65.1461 118.856V138.574H69.3606V131.671H73.0003L76.7769 138.574H81.265L77.0643 131.107L77.42 130.915C77.6663 130.805 77.9628 130.599 78.3094 130.296C78.6561 129.994 78.9936 129.632 79.322 129.21C79.6595 128.788 79.9514 128.234 80.1977 127.546C80.444 126.859 80.5672 126.121 80.5672 125.332C80.5672 123.517 79.9286 121.987 78.6515 120.74C77.3835 119.484 75.778 118.856 73.835 118.856H65.1461ZM75.6002 123.421C76.111 123.925 76.3664 124.562 76.3664 125.332C76.3664 126.047 76.111 126.652 75.6002 127.147C75.0984 127.633 74.4644 127.876 73.6982 127.876H69.3606V122.665H73.6982C74.4644 122.665 75.0984 122.917 75.6002 123.421ZM82.5102 118.856H97.9176V122.665H92.3211V138.574H88.1204V122.665H82.5102V118.856ZM119.222 118.856C118.292 118.581 117.311 118.444 116.281 118.444C113.288 118.444 110.762 119.447 108.7 121.455C106.648 123.462 105.621 125.882 105.621 128.715C105.621 131.547 106.648 133.972 108.7 135.989C110.762 137.996 113.288 139 116.281 139C117.302 139 118.287 138.858 119.236 138.574C120.194 138.29 120.965 137.978 121.549 137.639C122.142 137.29 122.693 136.892 123.204 136.442C123.724 135.984 124.057 135.668 124.203 135.494C124.358 135.31 124.472 135.164 124.545 135.054L122.014 132.372L121.795 132.661C121.649 132.863 121.412 133.101 121.083 133.376C120.755 133.651 120.376 133.926 119.948 134.201C119.519 134.467 118.976 134.701 118.319 134.902C117.672 135.095 116.992 135.191 116.281 135.191C114.447 135.191 112.914 134.572 111.683 133.335C110.451 132.097 109.836 130.557 109.836 128.715C109.836 126.872 110.451 125.332 111.683 124.095C112.914 122.857 114.447 122.239 116.281 122.239C116.946 122.239 117.599 122.344 118.237 122.555C118.876 122.757 119.391 122.981 119.783 123.229C120.176 123.467 120.536 123.747 120.864 124.067C121.202 124.388 121.416 124.617 121.508 124.755L121.573 124.839C121.6 124.873 121.624 124.905 121.647 124.935L121.695 124.998L121.717 125.026L121.74 125.057L124.408 122.376L124.094 121.964C123.893 121.698 123.56 121.372 123.095 120.987C122.639 120.602 122.11 120.217 121.508 119.832C120.915 119.447 120.153 119.122 119.222 118.856ZM144.714 138.574H140.514V130.544H132.112V138.574H127.898V118.856H132.112V126.749H140.514V118.856H144.714V138.574ZM157.481 123.792L159.862 130.269H155.086L157.481 123.792ZM153.691 133.926H161.258L162.941 138.574H167.429L159.711 118.856H155.237L147.519 138.574H152.008L153.691 133.926ZM170.234 118.856H174.448V138.574H170.234V118.856ZM196.998 118.856H192.797V131.396L183.137 118.856H179.484V138.574H183.698V126.047L193.358 138.574H196.998V118.856Z" fill="#F4BB2B"/>
</svg>
