<svg id="Layer_1" data-name="Layer 1" xmlns="http://www.w3.org/2000/svg" viewBox="0 0 244.49 358.39"><defs><style>.cls-1{fill:#ffffff;}</style></defs><title>oxb</title><path class="cls-1" d="M224.7,156.9C219.28,144.76,213,133,207.21,121.28,245.3,87.61,251.45,35.28,219.35,0c0,7.45.15,12.44,0,17.42-1.25,37.31-18.5,59.76-54,70.61-15.57,4.74-31.47,8.67-46.47,14.76-17.94,7.28-31.64,1.53-41.64-12.44C70.34,80.7,66.7,68.73,62,57.64c-1.59-3.72-2.13-7.87-3.13-11.85C46.42,73.35,44.54,100.1,61.27,127.1c-17.76,4.81-33.64,9.87-49.89,13.21C.44,142.59-1,148.64.51,157.76c3.67,22,21.09,36.11,46.15,37.11,39.05,1.54,75.77,11,107.82,34,11.12,7.94,20.09,18.91,30,28.49-1,1.12-1.95,2.24-2.93,3.34-16.81-18.88-35.23-35.06-62.82-39.67,6.33,25.31,2.62,46-16.56,61.74-19.43,16-41,14.14-64,6.47,8.72,12.88,17.73,24.75,28,35.35,29.54,30.47,65.23,42.08,105.74,27.61,42.46-15.15,66.75-46.91,71.56-92C247.4,224.16,239.36,189.79,224.7,156.9Zm-91.84-29.46c-.41-1.08-.83-2.18-1.22-3.25,10.65-3.94,21.33-7.84,32-11.78C156.8,126.19,145.79,129.22,132.86,127.44Z" transform="translate(0 0)"/></svg>